<svg width="800" height="600" viewBox="0 0 800 600" fill="none" xmlns="http://www.w3.org/2000/svg">
  <!-- Background -->
  <rect width="800" height="600" rx="16" fill="#F8FAFC" />
  
  <!-- Skills Growth Section -->
  <g transform="translate(40, 330)">
    <text x="45" y="20" font-family="Arial" font-size="14" font-weight="bold" text-anchor="middle" fill="#1c3b82">SKILLS GROWTH</text>
    
    <rect x="10" y="35" width="130" height="12" rx="6" fill="#F1F5F9" />
    <rect x="10" y="35" width="70" height="12" rx="6" fill="#1c3b82" />
    <text x="150" y="45" font-family="Arial" font-size="11" text-anchor="start" fill="#475569">Technical</text>
    
    <rect x="10" y="55" width="130" height="12" rx="6" fill="#F1F5F9" />
    <rect x="10" y="55" width="90" height="12" rx="6" fill="#a31d52" />
    <text x="150" y="65" font-family="Arial" font-size="11" text-anchor="start" fill="#475569">Leadership</text>
    
    <rect x="10" y="75" width="130" height="12" rx="6" fill="#F1F5F9" />
    <rect x="10" y="75" width="50" height="12" rx="6" fill="#1c3b82" />
    <text x="150" y="85" font-family="Arial" font-size="11" text-anchor="start" fill="#475569">Creative</text>
  </g>
  
  <!-- AI Career Guide Section -->
  <g transform="translate(120, 150)">
    <rect x="-60" y="-25" width="130" height="30" rx="15" fill="#1c3b82" />
    <text x="5" y="-5" font-family="Arial" font-size="14" font-weight="bold" text-anchor="middle" fill="white">AI CAREER GUIDE</text>
    
    <!-- AI Network -->
    <circle cx="-30" cy="30" r="6" fill="#1c3b82" />
    <circle cx="0" cy="10" r="6" fill="#a31d52" />
    <circle cx="30" cy="30" r="6" fill="#1c3b82" />
    <circle cx="-30" cy="70" r="6" fill="#1c3b82" />
    <circle cx="0" cy="90" r="6" fill="#a31d52" />
    <circle cx="30" cy="70" r="6" fill="#1c3b82" />
    <circle cx="0" cy="50" r="8" fill="#1c3b82" />
    
    <line x1="-30" y1="30" x2="0" y2="10" stroke="#1c3b82" stroke-width="1.5" />
    <line x1="0" y1="10" x2="30" y2="30" stroke="#a31d52" stroke-width="1.5" />
    <line x1="30" y1="30" x2="30" y2="70" stroke="#1c3b82" stroke-width="1.5" />
    <line x1="30" y1="70" x2="0" y2="90" stroke="#a31d52" stroke-width="1.5" />
    <line x1="0" y1="90" x2="-30" y2="70" stroke="#1c3b82" stroke-width="1.5" />
    <line x1="-30" y1="70" x2="-30" y2="30" stroke="#1c3b82" stroke-width="1.5" />
    
    <line x1="-30" y1="30" x2="0" y2="50" stroke="#1c3b82" stroke-width="1.5" />
    <line x1="0" y1="10" x2="0" y2="50" stroke="#a31d52" stroke-width="1.5" />
    <line x1="30" y1="30" x2="0" y2="50" stroke="#1c3b82" stroke-width="1.5" />
    <line x1="30" y1="70" x2="0" y2="50" stroke="#a31d52" stroke-width="1.5" />
    <line x1="0" y1="90" x2="0" y2="50" stroke="#1c3b82" stroke-width="1.5" />
    <line x1="-30" y1="70" x2="0" y2="50" stroke="#1c3b82" stroke-width="1.5" />
  </g>
  
  <!-- Career Path Map -->
  <g>
    <!-- Start Node -->
    <circle cx="150" cy="480" r="30" fill="#E0EFFF" stroke="#1c3b82" stroke-width="3" />
    <text x="150" y="485" font-family="Arial" font-size="16" font-weight="bold" text-anchor="middle" fill="#1c3b82">START</text>
    
    <!-- Career Paths -->
    <!-- Technical Path (Blue) -->
    <path d="M 180 475 Q 280 380, 350 390 Q 450 400, 550 350 Q 650 300, 730 280" stroke="#1c3b82" stroke-width="4" fill="none" />
    
    <!-- Management Path (Purple) -->
    <path d="M 180 480 Q 280 450, 350 450 Q 450 450, 550 415 Q 650 380, 730 370" stroke="#a31d52" stroke-width="4" fill="none" />
    
    <!-- Creative Path (Blue lighter) -->
    <path d="M 180 485 Q 280 510, 350 510 Q 450 500, 550 480 Q 650 470, 730 490" stroke="#1c3b82" stroke-width="4" fill="none" />
    
    <!-- Path Labels -->
    <text x="400" y="360" font-family="Arial" font-size="14" font-weight="bold" text-anchor="middle" fill="#1c3b82">TECHNICAL CAREER</text>
    <text x="400" y="415" font-family="Arial" font-size="14" font-weight="bold" text-anchor="middle" fill="#a31d52">MANAGEMENT CAREER</text>
    <text x="400" y="500" font-family="Arial" font-size="14" font-weight="bold" text-anchor="middle" fill="#1c3b82">CREATIVE CAREER</text>
    
    <!-- Career Milestones -->
    <!-- Technical Path Milestones -->
    <circle cx="350" cy="390" r="20" fill="white" stroke="#1c3b82" stroke-width="2" />
    <text x="350" y="395" font-family="Arial" font-size="12" font-weight="bold" text-anchor="middle" fill="#1c3b82">T1</text>
    
    <circle cx="550" cy="350" r="20" fill="white" stroke="#1c3b82" stroke-width="2" />
    <text x="550" y="355" font-family="Arial" font-size="12" font-weight="bold" text-anchor="middle" fill="#1c3b82">T2</text>
    
    <circle cx="730" cy="280" r="24" fill="#E0EFFF" stroke="#1c3b82" stroke-width="3" />
    <text x="730" y="285" font-family="Arial" font-size="14" font-weight="bold" text-anchor="middle" fill="#1c3b82">CTO</text>
    
    <!-- Management Path Milestones -->
    <circle cx="350" cy="450" r="20" fill="white" stroke="#a31d52" stroke-width="2" />
    <text x="350" y="455" font-family="Arial" font-size="12" font-weight="bold" text-anchor="middle" fill="#a31d52">M1</text>
    
    <circle cx="550" cy="415" r="20" fill="white" stroke="#a31d52" stroke-width="2" />
    <text x="550" y="420" font-family="Arial" font-size="12" font-weight="bold" text-anchor="middle" fill="#a31d52">M2</text>
    
    <circle cx="730" cy="370" r="24" fill="#F3E8FF" stroke="#a31d52" stroke-width="3" />
    <text x="730" y="375" font-family="Arial" font-size="14" font-weight="bold" text-anchor="middle" fill="#a31d52">CEO</text>
    
    <!-- Creative Path Milestones -->
    <circle cx="350" cy="510" r="20" fill="white" stroke="#1c3b82" stroke-width="2" />
    <text x="350" y="515" font-family="Arial" font-size="12" font-weight="bold" text-anchor="middle" fill="#1c3b82">C1</text>
    
    <circle cx="550" cy="480" r="20" fill="white" stroke="#1c3b82" stroke-width="2" />
    <text x="550" y="485" font-family="Arial" font-size="12" font-weight="bold" text-anchor="middle" fill="#1c3b82">C2</text>
    
    <circle cx="730" cy="490" r="24" fill="#DBEAFE" stroke="#1c3b82" stroke-width="3" />
    <text x="730" y="495" font-family="Arial" font-size="14" font-weight="bold" text-anchor="middle" fill="#1c3b82">CCO</text>
  </g>
  
  <!-- AI Resource Connections -->
  <g>
    <!-- Technical Path Connections -->
    <line x1="240" y1="390" x2="290" y2="340" stroke="#1c3b82" stroke-width="2" stroke-dasharray="5" />
    <rect x="290" y="290" width="100" height="50" rx="8" fill="white" stroke="#1c3b82" stroke-width="2" />
    <text x="340" y="320" font-family="Arial" font-size="10" text-anchor="middle" fill="#1c3b82">AI Skill Suggestion</text>
    
    <line x1="450" y1="350" x2="500" y2="300" stroke="#1c3b82" stroke-width="2" stroke-dasharray="5" />
    <rect x="500" y="250" width="100" height="50" rx="8" fill="white" stroke="#1c3b82" stroke-width="2" />
    <text x="550" y="280" font-family="Arial" font-size="10" text-anchor="middle" fill="#1c3b82">Learning Resource</text>
    
    <line x1="640" y1="300" x2="690" y2="250" stroke="#1c3b82" stroke-width="2" stroke-dasharray="5" />
    <rect x="690" y="200" width="100" height="50" rx="8" fill="white" stroke="#1c3b82" stroke-width="2" />
    <text x="740" y="230" font-family="Arial" font-size="10" text-anchor="middle" fill="#1c3b82">Career Milestone</text>
    
    <!-- Management Path Connections -->
    <line x1="290" y1="450" x2="340" y2="400" stroke="#a31d52" stroke-width="2" stroke-dasharray="5" />
    <rect x="340" y="350" width="100" height="50" rx="8" fill="white" stroke="#a31d52" stroke-width="2" />
    <text x="390" y="380" font-family="Arial" font-size="10" text-anchor="middle" fill="#a31d52">Leadership Course</text>
    
    <line x1="490" y1="415" x2="540" y2="365" stroke="#a31d52" stroke-width="2" stroke-dasharray="5" />
    <rect x="540" y="315" width="100" height="50" rx="8" fill="white" stroke="#a31d52" stroke-width="2" />
    <text x="590" y="345" font-family="Arial" font-size="10" text-anchor="middle" fill="#a31d52">Team Building</text>
    
    <line x1="650" y1="380" x2="700" y2="330" stroke="#a31d52" stroke-width="2" stroke-dasharray="5" />
    <rect x="700" y="280" width="100" height="50" rx="8" fill="white" stroke="#a31d52" stroke-width="2" />
    <text x="750" y="310" font-family="Arial" font-size="10" text-anchor="middle" fill="#a31d52">Executive Training</text>
    
    <!-- Creative Path Connections -->
    <line x1="260" y1="490" x2="310" y2="440" stroke="#1c3b82" stroke-width="2" stroke-dasharray="5" />
    <rect x="310" y="390" width="100" height="50" rx="8" fill="white" stroke="#1c3b82" stroke-width="2" />
    <text x="360" y="420" font-family="Arial" font-size="10" text-anchor="middle" fill="#1c3b82">Design Thinking</text>
    
    <line x1="450" y1="480" x2="500" y2="430" stroke="#1c3b82" stroke-width="2" stroke-dasharray="5" />
    <rect x="500" y="380" width="100" height="50" rx="8" fill="white" stroke="#1c3b82" stroke-width="2" />
    <text x="550" y="410" font-family="Arial" font-size="10" text-anchor="middle" fill="#1c3b82">Creative Strategy</text>
    
    <line x1="650" y1="470" x2="700" y2="420" stroke="#1c3b82" stroke-width="2" stroke-dasharray="5" />
    <rect x="700" y="370" width="100" height="50" rx="8" fill="white" stroke="#1c3b82" stroke-width="2" />
    <text x="750" y="400" font-family="Arial" font-size="10" text-anchor="middle" fill="#1c3b82">Brand Leadership</text>
  </g>
  
  <!-- AI to Career Path Connection -->
  <path d="M 120 250 C 120 320, 120 400, 150 450" stroke="#1c3b82" stroke-width="2" stroke-dasharray="6" />
</svg>