<svg width="800" height="600" viewBox="0 0 800 600" fill="none" xmlns="http://www.w3.org/2000/svg">
  <!-- Background -->
  <rect width="800" height="600" rx="16" fill="#F8FAFC" />
  
  <!-- Career Path Visualization -->
  <g>
    <!-- Path Starting Point -->
    <circle cx="120" cy="500" r="30" fill="#E0EFFF" stroke="#1A56DB" stroke-width="3" />
    <text x="120" y="505" font-family="Arial" font-size="16" font-weight="bold" text-anchor="middle" fill="#1A56DB">START</text>
    
    <!-- Main Career Paths - 3 Different Options -->
    <!-- Path 1 - Technical Path -->
    <path d="M 150 490 Q 250 390, 350 390 Q 450 390, 550 250 Q 650 110, 750 120" stroke="#1A56DB" stroke-width="4" fill="none" stroke-dasharray="0" />
    
    <!-- Path 2 - Management Path -->
    <path d="M 150 500 Q 250 450, 350 450 Q 450 450, 550 400 Q 650 350, 750 320" stroke="#7E22CE" stroke-width="4" fill="none" />
    
    <!-- Path 3 - Creative Path -->
    <path d="M 150 510 Q 250 500, 350 510 Q 450 520, 550 490 Q 650 460, 750 510" stroke="#2563EB" stroke-width="4" fill="none" />
    
    <!-- Career Milestones on Path 1 -->
    <circle cx="350" cy="390" r="20" fill="white" stroke="#1A56DB" stroke-width="2" />
    <text x="350" y="395" font-family="Arial" font-size="12" font-weight="bold" text-anchor="middle" fill="#1A56DB">T1</text>
    
    <circle cx="550" cy="250" r="20" fill="white" stroke="#1A56DB" stroke-width="2" />
    <text x="550" y="255" font-family="Arial" font-size="12" font-weight="bold" text-anchor="middle" fill="#1A56DB">T2</text>
    
    <circle cx="750" cy="120" r="24" fill="#E0EFFF" stroke="#1A56DB" stroke-width="3" />
    <text x="750" y="125" font-family="Arial" font-size="14" font-weight="bold" text-anchor="middle" fill="#1A56DB">CTO</text>
    
    <!-- Career Milestones on Path 2 -->
    <circle cx="350" cy="450" r="20" fill="white" stroke="#7E22CE" stroke-width="2" />
    <text x="350" y="455" font-family="Arial" font-size="12" font-weight="bold" text-anchor="middle" fill="#7E22CE">M1</text>
    
    <circle cx="550" cy="400" r="20" fill="white" stroke="#7E22CE" stroke-width="2" />
    <text x="550" y="405" font-family="Arial" font-size="12" font-weight="bold" text-anchor="middle" fill="#7E22CE">M2</text>
    
    <circle cx="750" cy="320" r="24" fill="#F3E8FF" stroke="#7E22CE" stroke-width="3" />
    <text x="750" y="325" font-family="Arial" font-size="14" font-weight="bold" text-anchor="middle" fill="#7E22CE">CEO</text>
    
    <!-- Career Milestones on Path 3 -->
    <circle cx="350" cy="510" r="20" fill="white" stroke="#2563EB" stroke-width="2" />
    <text x="350" y="515" font-family="Arial" font-size="12" font-weight="bold" text-anchor="middle" fill="#2563EB">C1</text>
    
    <circle cx="550" cy="490" r="20" fill="white" stroke="#2563EB" stroke-width="2" />
    <text x="550" y="495" font-family="Arial" font-size="12" font-weight="bold" text-anchor="middle" fill="#2563EB">C2</text>
    
    <circle cx="750" cy="510" r="24" fill="#DBEAFE" stroke="#2563EB" stroke-width="3" />
    <text x="750" y="515" font-family="Arial" font-size="14" font-weight="bold" text-anchor="middle" fill="#2563EB">CCO</text>
    
    <!-- AI Guidance Elements -->
    <!-- AI Recommendations -->
    <g>
      <!-- AI Data Connecting Lines -->
      <line x1="220" y1="380" x2="270" y2="330" stroke="#1A56DB" stroke-width="2" stroke-dasharray="4" />
      <line x1="420" y1="300" x2="470" y2="250" stroke="#1A56DB" stroke-width="2" stroke-dasharray="4" />
      <line x1="620" y1="180" x2="670" y2="130" stroke="#1A56DB" stroke-width="2" stroke-dasharray="4" />
      
      <line x1="220" y1="450" x2="270" y2="400" stroke="#7E22CE" stroke-width="2" stroke-dasharray="4" />
      <line x1="420" y1="410" x2="470" y2="360" stroke="#7E22CE" stroke-width="2" stroke-dasharray="4" />
      <line x1="620" y1="370" x2="670" y2="320" stroke="#7E22CE" stroke-width="2" stroke-dasharray="4" />
      
      <line x1="220" y1="510" x2="270" y2="460" stroke="#2563EB" stroke-width="2" stroke-dasharray="4" />
      <line x1="420" y1="500" x2="470" y2="450" stroke="#2563EB" stroke-width="2" stroke-dasharray="4" />
      <line x1="620" y1="490" x2="670" y2="440" stroke="#2563EB" stroke-width="2" stroke-dasharray="4" />
    </g>
    
    <!-- AI Guidance Nodes -->
    <g>
      <!-- AI Recommendation Cards -->
      <rect x="270" y="280" width="100" height="50" rx="8" fill="white" stroke="#1A56DB" stroke-width="2" />
      <text x="320" y="310" font-family="Arial" font-size="10" text-anchor="middle" fill="#1A56DB">AI Skill Suggestion</text>
      
      <rect x="470" y="200" width="100" height="50" rx="8" fill="white" stroke="#1A56DB" stroke-width="2" />
      <text x="520" y="230" font-family="Arial" font-size="10" text-anchor="middle" fill="#1A56DB">Learning Resource</text>
      
      <rect x="670" y="80" width="100" height="50" rx="8" fill="white" stroke="#1A56DB" stroke-width="2" />
      <text x="720" y="110" font-family="Arial" font-size="10" text-anchor="middle" fill="#1A56DB">Career Milestone</text>
      
      <rect x="270" y="350" width="100" height="50" rx="8" fill="white" stroke="#7E22CE" stroke-width="2" />
      <text x="320" y="380" font-family="Arial" font-size="10" text-anchor="middle" fill="#7E22CE">Leadership Course</text>
      
      <rect x="470" y="310" width="100" height="50" rx="8" fill="white" stroke="#7E22CE" stroke-width="2" />
      <text x="520" y="340" font-family="Arial" font-size="10" text-anchor="middle" fill="#7E22CE">Team Building</text>
      
      <rect x="670" y="270" width="100" height="50" rx="8" fill="white" stroke="#7E22CE" stroke-width="2" />
      <text x="720" y="300" font-family="Arial" font-size="10" text-anchor="middle" fill="#7E22CE">Executive Training</text>
      
      <rect x="270" y="410" width="100" height="50" rx="8" fill="white" stroke="#2563EB" stroke-width="2" />
      <text x="320" y="440" font-family="Arial" font-size="10" text-anchor="middle" fill="#2563EB">Design Thinking</text>
      
      <rect x="470" y="400" width="100" height="50" rx="8" fill="white" stroke="#2563EB" stroke-width="2" />
      <text x="520" y="430" font-family="Arial" font-size="10" text-anchor="middle" fill="#2563EB">Creative Strategy</text>
      
      <rect x="670" y="390" width="100" height="50" rx="8" fill="white" stroke="#2563EB" stroke-width="2" />
      <text x="720" y="420" font-family="Arial" font-size="10" text-anchor="middle" fill="#2563EB">Brand Leadership</text>
    </g>
  </g>
  
  <!-- AI Assistant Visual -->
  <g>
    <!-- AI Brain/Assistant Icon -->
    <circle cx="120" cy="200" r="60" fill="#F8FAFC" stroke="#E2E8F0" stroke-width="1" />
    
    <!-- AI Brain Network Visualization -->
    <circle cx="90" cy="180" r="6" fill="#1A56DB" />
    <circle cx="120" cy="160" r="6" fill="#7E22CE" />
    <circle cx="150" cy="180" r="6" fill="#2563EB" />
    <circle cx="90" cy="220" r="6" fill="#2563EB" />
    <circle cx="120" cy="240" r="6" fill="#1A56DB" />
    <circle cx="150" cy="220" r="6" fill="#7E22CE" />
    <circle cx="120" cy="200" r="8" fill="#1A56DB" />
    
    <line x1="90" y1="180" x2="120" y2="160" stroke="#1A56DB" stroke-width="1" />
    <line x1="120" y1="160" x2="150" y2="180" stroke="#7E22CE" stroke-width="1" />
    <line x1="150" y1="180" x2="150" y2="220" stroke="#2563EB" stroke-width="1" />
    <line x1="150" y1="220" x2="120" y2="240" stroke="#7E22CE" stroke-width="1" />
    <line x1="120" y1="240" x2="90" y2="220" stroke="#1A56DB" stroke-width="1" />
    <line x1="90" y1="220" x2="90" y2="180" stroke="#2563EB" stroke-width="1" />
    <line x1="90" y1="180" x2="120" y2="200" stroke="#1A56DB" stroke-width="1" />
    <line x1="120" y1="160" x2="120" y2="200" stroke="#7E22CE" stroke-width="1" />
    <line x1="150" y1="180" x2="120" y2="200" stroke="#2563EB" stroke-width="1" />
    <line x1="150" y1="220" x2="120" y2="200" stroke="#7E22CE" stroke-width="1" />
    <line x1="120" y1="240" x2="120" y2="200" stroke="#1A56DB" stroke-width="1" />
    <line x1="90" y1="220" x2="120" y2="200" stroke="#2563EB" stroke-width="1" />
    
    <!-- AI Connecting Line to Career Path -->
    <path d="M 120 260 C 120 350, 100 450, 120 470" stroke="#1A56DB" stroke-width="2" stroke-dasharray="6" />
    
    <!-- AI Pulse Animation Visual -->
    <circle cx="120" cy="200" r="25" fill="none" stroke="#1A56DB" stroke-width="1" opacity="0.5" />
    <circle cx="120" cy="200" r="35" fill="none" stroke="#1A56DB" stroke-width="1" opacity="0.3" />
    <circle cx="120" cy="200" r="45" fill="none" stroke="#1A56DB" stroke-width="1" opacity="0.1" />
    
    <!-- AI Label -->
    <rect x="45" y="120" width="150" height="30" rx="15" fill="#1A56DB" />
    <text x="120" y="140" font-family="Arial" font-size="14" font-weight="bold" text-anchor="middle" fill="white">AI CAREER GUIDE</text>
  </g>
  
  <!-- Skills and Growth Labels -->
  <g>
    <!-- Path Labels -->
    <text x="400" y="370" font-family="Arial" font-size="14" font-weight="bold" text-anchor="middle" fill="#1A56DB">TECHNICAL CAREER</text>
    <text x="400" y="430" font-family="Arial" font-size="14" font-weight="bold" text-anchor="middle" fill="#7E22CE">MANAGEMENT CAREER</text>
    <text x="400" y="530" font-family="Arial" font-size="14" font-weight="bold" text-anchor="middle" fill="#2563EB">CREATIVE CAREER</text>
    
    <!-- Skills Growth -->
    <rect x="30" y="330" width="150" height="100" rx="10" fill="white" stroke="#E2E8F0" stroke-width="1" />
    <text x="105" y="350" font-family="Arial" font-size="13" font-weight="bold" text-anchor="middle" fill="#475569">SKILLS GROWTH</text>
    
    <rect x="40" y="365" width="130" height="10" rx="5" fill="#F1F5F9" />
    <rect x="40" y="365" width="70" height="10" rx="5" fill="#1A56DB" />
    <text x="180" y="373" font-family="Arial" font-size="10" text-anchor="start" fill="#475569">Technical</text>
    
    <rect x="40" y="385" width="130" height="10" rx="5" fill="#F1F5F9" />
    <rect x="40" y="385" width="90" height="10" rx="5" fill="#7E22CE" />
    <text x="180" y="393" font-family="Arial" font-size="10" text-anchor="start" fill="#475569">Leadership</text>
    
    <rect x="40" y="405" width="130" height="10" rx="5" fill="#F1F5F9" />
    <rect x="40" y="405" width="50" height="10" rx="5" fill="#2563EB" />
    <text x="180" y="413" font-family="Arial" font-size="10" text-anchor="start" fill="#475569">Creative</text>
  </g>
</svg>