<svg width="800" height="600" viewBox="0 0 800 600" fill="none" xmlns="http://www.w3.org/2000/svg">
  <!-- Background -->
  <rect width="800" height="600" rx="12" fill="#F8FAFC" />
  
  <!-- Header -->
  <rect width="800" height="60" fill="#1A56DB" />
  <circle cx="40" cy="30" r="16" fill="white" opacity="0.8" />
  <rect x="70" y="22" width="120" height="16" rx="4" fill="white" opacity="0.8" />
  <rect x="650" y="22" width="120" height="16" rx="4" fill="white" opacity="0.5" />
  
  <!-- Sidebar -->
  <rect width="200" height="540" y="60" fill="#F1F5F9" />
  <rect x="30" y="100" width="140" height="12" rx="2" fill="#94A3B8" />
  <rect x="30" y="130" width="140" height="12" rx="2" fill="#94A3B8" />
  <rect x="30" y="160" width="140" height="12" rx="2" fill="#1A56DB" />
  <rect x="30" y="190" width="140" height="12" rx="2" fill="#94A3B8" />
  <rect x="30" y="220" width="140" height="12" rx="2" fill="#94A3B8" />
  <circle cx="40" cy="160" r="6" fill="#1A56DB" />
  
  <!-- Main Content -->
  <rect x="230" y="90" width="540" height="40" rx="4" fill="#E2E8F0" />
  <rect x="250" y="102" width="240" height="16" rx="2" fill="#475569" />
  <rect x="650" y="102" width="100" height="16" rx="8" fill="#1A56DB" />
  
  <!-- Charts -->
  <rect x="230" y="150" width="260" height="180" rx="8" fill="white" />
  <rect x="250" y="170" width="180" height="16" rx="2" fill="#334155" />
  <rect x="250" y="196" width="220" height="114" rx="4" fill="#F8FAFC" />
  
  <!-- Skill Graph -->
  <line x1="270" y1="280" x2="450" y2="280" stroke="#E2E8F0" stroke-width="2" />
  <line x1="270" y1="250" x2="450" y2="250" stroke="#E2E8F0" stroke-width="2" />
  <line x1="270" y1="220" x2="450" y2="220" stroke="#E2E8F0" stroke-width="2" />
  
  <rect x="280" y="250" width="40" height="30" fill="#3B82F6" />
  <rect x="330" y="230" width="40" height="50" fill="#7E22CE" />
  <rect x="380" y="220" width="40" height="60" fill="#3B82F6" />
  <rect x="430" y="240" width="40" height="40" fill="#7E22CE" />
  
  <!-- Second Chart -->
  <rect x="510" y="150" width="260" height="180" rx="8" fill="white" />
  <rect x="530" y="170" width="180" height="16" rx="2" fill="#334155" />
  
  <!-- Circular Progress -->
  <circle cx="640" cy="250" r="60" stroke="#E2E8F0" stroke-width="16" />
  <path d="M 640 190 A 60 60 0 1 1 580 250" stroke="#3B82F6" stroke-width="16" stroke-linecap="round" />
  <text x="640" y="260" font-family="sans-serif" font-size="24" text-anchor="middle" fill="#334155">75%</text>
  
  <!-- Career Path Progression -->
  <rect x="230" y="350" width="540" height="220" rx="8" fill="white" />
  <rect x="250" y="370" width="220" height="16" rx="2" fill="#334155" />
  
  <!-- Path Points -->
  <circle cx="290" cy="450" r="8" fill="#3B82F6" />
  <circle cx="390" cy="420" r="8" fill="#3B82F6" />
  <circle cx="490" cy="480" r="8" fill="#3B82F6" />
  <circle cx="590" cy="430" r="8" fill="#7E22CE" />
  <circle cx="690" cy="410" r="8" fill="#7E22CE" opacity="0.5" />
  
  <!-- Path Line -->
  <path d="M 290 450 C 330 450, 350 420, 390 420 C 430 420, 450 480, 490 480 C 530 480, 550 430, 590 430 C 630 430, 650 410, 690 410" stroke="#3B82F6" stroke-width="3" fill="none" />
  
  <!-- Milestones -->
  <rect x="270" y="480" width="40" height="12" rx="2" fill="#94A3B8" />
  <rect x="370" y="450" width="40" height="12" rx="2" fill="#94A3B8" />
  <rect x="470" y="510" width="40" height="12" rx="2" fill="#94A3B8" />
  <rect x="570" y="460" width="40" height="12" rx="2" fill="#94A3B8" />
  <rect x="670" y="440" width="40" height="12" rx="2" fill="#94A3B8" />
  
  <!-- Small Data Cards -->
  <rect x="230" y="590" width="170" height="80" rx="8" fill="#F1F5F9" />
  <rect x="250" y="610" width="90" height="12" rx="2" fill="#475569" />
  <rect x="250" y="630" width="50" height="20" rx="2" fill="#334155" />
  
  <rect x="415" y="590" width="170" height="80" rx="8" fill="#F1F5F9" />
  <rect x="435" y="610" width="90" height="12" rx="2" fill="#475569" />
  <rect x="435" y="630" width="50" height="20" rx="2" fill="#334155" />
  
  <rect x="600" y="590" width="170" height="80" rx="8" fill="#F1F5F9" />
  <rect x="620" y="610" width="90" height="12" rx="2" fill="#475569" />
  <rect x="620" y="630" width="50" height="20" rx="2" fill="#334155" />
</svg>