<svg width="400" height="300" viewBox="0 0 400 300" fill="none" xmlns="http://www.w3.org/2000/svg">
  <!-- Background -->
  <rect width="400" height="300" rx="12" fill="#F8FAFC" />
  
  <!-- Dashboard Card -->
  <rect x="50" y="40" width="300" height="220" rx="12" fill="#FFFFFF" stroke="#E2E8F0" stroke-width="1" />
  
  <!-- Header -->
  <rect x="80" y="65" width="180" height="8" rx="4" fill="#7E22CE" />
  <rect x="80" y="85" width="180" height="6" rx="3" fill="#E5E7EB" />
  
  <!-- Growth Chart -->
  <rect x="80" y="110" width="240" height="120" rx="6" fill="#F8FAFC" stroke="#E2E8F0" stroke-width="1" />
  
  <!-- Grid Lines -->
  <line x1="100" y1="200" x2="300" y2="200" stroke="#E2E8F0" stroke-width="1" />
  <line x1="100" y1="170" x2="300" y2="170" stroke="#E2E8F0" stroke-width="1" />
  <line x1="100" y1="140" x2="300" y2="140" stroke="#E2E8F0" stroke-width="1" />
  
  <!-- Growth Line Chart -->
  <path d="M 100 180 L 140 175 L 180 165 L 220 140 L 260 130 L 300 120" stroke="#7E22CE" stroke-width="3" fill="none" />
  
  <!-- Data Points -->
  <circle cx="100" cy="180" r="4" fill="#7E22CE" />
  <circle cx="140" cy="175" r="4" fill="#7E22CE" />
  <circle cx="180" cy="165" r="4" fill="#7E22CE" />
  <circle cx="220" cy="140" r="4" fill="#7E22CE" />
  <circle cx="260" cy="130" r="4" fill="#7E22CE" />
  <circle cx="300" cy="120" r="4" fill="#7E22CE" />
  
  <!-- Month Labels -->
  <rect x="95" y="210" width="10" height="6" rx="3" fill="#64748B" />
  <rect x="135" y="210" width="10" height="6" rx="3" fill="#64748B" />
  <rect x="175" y="210" width="10" height="6" rx="3" fill="#64748B" />
  <rect x="215" y="210" width="10" height="6" rx="3" fill="#64748B" />
  <rect x="255" y="210" width="10" height="6" rx="3" fill="#64748B" />
  <rect x="295" y="210" width="10" height="6" rx="3" fill="#64748B" />
  
  <!-- Achievement Badges -->
  <circle cx="310" cy="80" r="10" fill="#F1F5F9" stroke="#7E22CE" stroke-width="2" />
  <circle cx="310" cy="80" r="5" fill="#7E22CE" />
  
  <circle cx="340" cy="80" r="10" fill="#F1F5F9" stroke="#CBD5E1" stroke-width="2" />
  <circle cx="340" cy="80" r="5" fill="#CBD5E1" />
  
  <!-- Update Button -->
  <rect x="150" y="245" width="100" height="14" rx="7" fill="#7E22CE" />
  <rect x="180" y="249" width="40" height="6" rx="3" fill="white" />
</svg>