<svg width="400" height="300" viewBox="0 0 400 300" fill="none" xmlns="http://www.w3.org/2000/svg">
  <!-- Background -->
  <rect width="400" height="300" rx="12" fill="#F8FAFC" />
  
  <!-- Assessment Card -->
  <rect x="50" y="40" width="300" height="220" rx="12" fill="#FFFFFF" stroke="#E2E8F0" stroke-width="1" />
  
  <!-- Header -->
  <rect x="80" y="65" width="160" height="8" rx="4" fill="#7E22CE" />
  <rect x="80" y="85" width="200" height="6" rx="3" fill="#E5E7EB" />
  
  <!-- Skills Chart -->
  <rect x="80" y="110" width="240" height="120" rx="6" fill="#F8FAFC" stroke="#E2E8F0" stroke-width="1" />
  
  <!-- Chart Labels -->
  <rect x="90" y="123" width="70" height="6" rx="3" fill="#64748B" />
  <rect x="90" y="150" width="70" height="6" rx="3" fill="#64748B" />
  <rect x="90" y="177" width="70" height="6" rx="3" fill="#64748B" />
  <rect x="90" y="204" width="70" height="6" rx="3" fill="#64748B" />
  
  <!-- Chart Bars Background -->
  <rect x="170" y="123" width="140" height="6" rx="3" fill="#E2E8F0" />
  <rect x="170" y="150" width="140" height="6" rx="3" fill="#E2E8F0" />
  <rect x="170" y="177" width="140" height="6" rx="3" fill="#E2E8F0" />
  <rect x="170" y="204" width="140" height="6" rx="3" fill="#E2E8F0" />
  
  <!-- Chart Bars Filled -->
  <rect x="170" y="123" width="110" height="6" rx="3" fill="#1A56DB" />
  <rect x="170" y="150" width="90" height="6" rx="3" fill="#7E22CE" />
  <rect x="170" y="177" width="70" height="6" rx="3" fill="#1A56DB" />
  <rect x="170" y="204" width="120" height="6" rx="3" fill="#7E22CE" />
  
  <!-- Percentage -->
  <rect x="290" y="122" width="12" height="8" rx="4" fill="#1A56DB" />
  <rect x="270" y="149" width="12" height="8" rx="4" fill="#7E22CE" />
  <rect x="250" y="176" width="12" height="8" rx="4" fill="#1A56DB" />
  <rect x="300" y="203" width="12" height="8" rx="4" fill="#7E22CE" />
  
  <!-- Continue Button -->
  <rect x="150" y="245" width="100" height="14" rx="7" fill="#7E22CE" />
  <rect x="180" y="249" width="40" height="6" rx="3" fill="white" />
</svg>